<?xml version="1.0" encoding="UTF-8"?>
<svg id="Layer_1" data-name="Layer 1" xmlns="http://www.w3.org/2000/svg" viewBox="0 0 18 18">
  <defs>
    <style>
      .cls-1 {
        fill: #6f0b1d;
      }
    </style>
  </defs>
  <path class="cls-1" d="m12.17,6h1.63c.41,0,.75-.34.75-.75s-.34-.75-.75-.75h-1.63c-1.75,0-3.17,1.42-3.17,3.17v1.33h-1.05c-.41,0-.75.34-.75.75s.34.75.75.75h1.05v6.3c0,.41.34.75.75.75s.75-.34.75-.75v-6.3h3c.41,0,.75-.34.75-.75s-.34-.75-.75-.75h-3v-1.33c0-.92.75-1.67,1.67-1.67Z"/>
  <path class="cls-1" d="m13.5,18H4.5c-2.48,0-4.5-2.02-4.5-4.5V4.5C0,2.02,2.02,0,4.5,0h9c2.48,0,4.5,2.02,4.5,4.5v9c0,2.48-2.02,4.5-4.5,4.5ZM4.5,1.5c-1.65,0-3,1.35-3,3v9c0,1.65,1.35,3,3,3h9c1.65,0,3-1.35,3-3V4.5c0-1.65-1.35-3-3-3H4.5Z"/>
</svg>