<?xml version="1.0" encoding="UTF-8"?>
<svg id="Layer_1" data-name="Layer 1" xmlns="http://www.w3.org/2000/svg" width="320" height="350" viewBox="0 0 320 350">
  <defs>
    <style>
      .cls-1 {
        stroke-width: 4px;
      }

      .cls-1, .cls-2, .cls-3, .cls-4, .cls-5, .cls-6, .cls-7, .cls-8 {
        fill: none;
        stroke-linecap: round;
      }

      .cls-1, .cls-2, .cls-4, .cls-5, .cls-8 {
        stroke: #6f0d1e;
      }

      .cls-2 {
        stroke-width: 4px;
      }

      .cls-3, .cls-4 {
        stroke-width: 5px;
      }

      .cls-3, .cls-6 {
        stroke: #b63f54;
      }

      .cls-5 {
        stroke-width: 6px;
      }

      .cls-6, .cls-7, .cls-8 {
        stroke-width: 3px;
      }

      .cls-7 {
        stroke: #41a393;
      }

      .cls-9 {
        fill: #f9f7f2;
      }

      .cls-9, .cls-10 {
        stroke-width: 0px;
      }

      .cls-10 {
        fill: #6f0d1e;
      }
    </style>
  </defs>
  <path class="cls-4" d="m100.66,208.27l-.04-30.13"/>
  <path class="cls-5" d="m126.36,207.94l-.04-52.02"/>
  <path class="cls-4" d="m153.71,208.27l-.04-74.9"/>
  <path class="cls-4" d="m190.35,208.6l-.58-104.07"/>
  <path class="cls-3" d="m139.83,311.8l.71-165.5"/>
  <path class="cls-4" d="m166.83,208.27l-.04-83.18"/>
  <path class="cls-2" d="m205.66,207.94l-.04-114.68"/>
  <path class="cls-4" d="m232.46,208.27l.51-136.57"/>
  <path class="cls-4" d="m258.5,316.18l.71-265.69"/>
  <path class="cls-4" d="m285.38,208.3V28.03"/>
  <path class="cls-8" d="m219.33,208.6l-.04-127.28"/>
  <path class="cls-8" d="m178.72,302.45l-.38-187.66"/>
  <path class="cls-7" d="m114.33,208.6l-.04-43.07"/>
  <path class="cls-8" d="m271.83,208.6l.51-169.39"/>
  <path class="cls-6" d="m298.57,208.62V16.99"/>
  <path class="cls-6" d="m87.62,208.6v-21.93"/>
  <path class="cls-5" d="m71.58,208.03v-15.5"/>
  <path class="cls-5" d="m311.75,207.79V7.76"/>
  <path class="cls-10" d="m73.68,226.1h-5.49v-1.15l1.97-1.99c.4-.41.72-.75.96-1.02.24-.28.42-.53.53-.75.11-.23.17-.47.17-.73,0-.31-.09-.54-.26-.7-.17-.16-.4-.24-.69-.24-.3,0-.6.07-.89.21-.29.14-.59.34-.9.6l-.9-1.07c.23-.19.46-.38.71-.55.25-.17.55-.31.88-.41.34-.11.74-.16,1.21-.16.52,0,.96.09,1.33.28.37.19.66.44.86.76.2.32.3.68.3,1.09,0,.43-.09.83-.26,1.19-.17.36-.42.71-.75,1.06-.33.35-.72.74-1.18,1.17l-1.01.95v.07h3.42v1.4Z"/>
  <path class="cls-10" d="m88.98,222.17c0,.63-.05,1.2-.15,1.7-.1.5-.25.92-.47,1.27-.21.35-.5.61-.85.79-.35.18-.78.27-1.28.27-.63,0-1.15-.16-1.55-.48-.4-.32-.7-.78-.9-1.38-.19-.61-.29-1.33-.29-2.17s.09-1.57.26-2.18c.18-.6.47-1.07.87-1.39.4-.32.94-.48,1.61-.48.63,0,1.14.16,1.55.48.41.32.71.78.91,1.39.2.6.3,1.33.3,2.18Zm-3.84,0c0,.6.03,1.1.1,1.5.07.4.18.7.34.9.16.2.38.3.66.3s.49-.1.65-.3c.16-.2.28-.5.34-.9.07-.4.1-.9.1-1.5s-.03-1.1-.1-1.5c-.07-.4-.18-.7-.34-.9-.16-.2-.37-.31-.65-.31s-.5.1-.66.31c-.16.2-.27.5-.34.9-.06.4-.1.9-.1,1.5Z"/>
  <path class="cls-10" d="m98.21,223.03v-1.22h2.62v1.22h-2.62Z"/>
  <path class="cls-10" d="m115.76,226.1h-5.49v-1.15l1.97-1.99c.4-.41.72-.75.96-1.02.24-.28.42-.53.53-.75.11-.23.17-.47.17-.73,0-.31-.09-.54-.26-.7-.17-.16-.4-.24-.69-.24s-.6.07-.89.21c-.29.14-.58.34-.9.6l-.9-1.07c.22-.19.46-.38.71-.55.25-.17.55-.31.88-.41.34-.11.74-.16,1.21-.16.52,0,.96.09,1.33.28.37.19.66.44.86.76.2.32.3.68.3,1.09,0,.43-.09.83-.26,1.19-.17.36-.42.71-.75,1.06-.33.35-.72.74-1.18,1.17l-1.01.95v.07h3.42v1.4Z"/>
  <path class="cls-10" d="m127.19,226.1h-1.66v-4.54c0-.12,0-.28,0-.46,0-.19,0-.38.02-.57,0-.2.01-.37.02-.53-.04.05-.12.13-.24.24-.12.11-.23.21-.33.3l-.9.72-.8-1,2.53-2.01h1.36v7.85Z"/>
  <path class="cls-10" d="m187.86,226.1l-1.89-6.16h-.05c0,.15.02.37.03.67.02.29.03.61.05.94.01.33.02.63.02.9v3.65h-1.49v-7.85h2.27l1.86,6h.03l1.97-6h2.27v7.85h-1.55v-3.72c0-.25,0-.53.01-.85.01-.32.02-.63.04-.92.01-.29.03-.51.03-.66h-.05l-2.03,6.15h-1.52Z"/>
  <path class="cls-10" d="m164.93,225.1h-1.49v-7.14h4.09v1.24h-2.6v1.84h2.42v1.24h-2.42v2.82Z"/>
  <path class="cls-10" d="m155.15,221.52c0,.55-.07,1.05-.21,1.5-.14.45-.35.84-.62,1.16-.28.33-.63.58-1.05.75-.43.17-.93.26-1.51.26s-1.09-.09-1.51-.26c-.43-.18-.78-.43-1.06-.75-.28-.33-.48-.71-.62-1.17-.14-.45-.21-.96-.21-1.51,0-.74.12-1.38.36-1.93.24-.55.62-.98,1.12-1.28.5-.3,1.15-.45,1.92-.45s1.41.15,1.91.45c.5.3.87.73,1.11,1.28.24.55.37,1.2.37,1.94Zm-5.21,0c0,.5.06.93.19,1.29.13.36.32.64.59.83.27.19.61.29,1.04.29s.78-.1,1.04-.29c.27-.19.46-.47.58-.83.12-.36.19-.79.19-1.29,0-.75-.14-1.34-.42-1.77-.28-.43-.74-.64-1.38-.64-.43,0-.77.1-1.04.29-.27.19-.46.47-.59.83-.12.36-.19.79-.19,1.29Z"/>
  <path class="cls-10" d="m206.53,226.1l-.57-1.87h-2.86l-.57,1.87h-1.79l2.77-7.89h2.04l2.78,7.89h-1.79Zm-.97-3.27l-.57-1.83c-.04-.12-.08-.28-.15-.47-.06-.19-.12-.39-.18-.59-.06-.2-.1-.37-.14-.52-.04.15-.09.33-.15.55-.06.21-.12.42-.18.61-.06.19-.1.33-.12.41l-.56,1.83h2.05Z"/>
  <path class="cls-10" d="m217.92,218.24c.71,0,1.3.09,1.76.26.47.17.81.43,1.04.78s.34.79.34,1.32c0,.36-.07.67-.2.94-.14.27-.32.5-.54.68-.22.19-.46.34-.72.46l2.31,3.42h-1.85l-1.87-3.01h-.89v3.01h-1.66v-7.85h2.29Zm-.12,1.36h-.51v2.12h.54c.55,0,.94-.09,1.18-.27.24-.19.36-.46.36-.82s-.13-.64-.39-.79c-.26-.16-.65-.24-1.19-.24Z"/>
  <path class="cls-10" d="m232.33,219.52c-.32,0-.6.06-.85.19-.24.12-.45.3-.62.53-.17.23-.29.51-.38.84-.09.33-.13.7-.13,1.11,0,.55.07,1.03.2,1.42.14.39.35.69.64.9.29.21.66.31,1.12.31.32,0,.64-.04.96-.11.32-.07.67-.17,1.05-.31v1.4c-.35.14-.69.24-1.03.31-.34.06-.71.1-1.13.1-.81,0-1.48-.17-2-.5-.52-.34-.9-.81-1.15-1.41-.25-.61-.38-1.31-.38-2.12,0-.59.08-1.14.24-1.63.16-.49.4-.92.71-1.28.31-.36.7-.64,1.15-.84.46-.2.99-.29,1.58-.29.39,0,.78.05,1.17.15.39.1.77.23,1.13.4l-.54,1.35c-.29-.14-.59-.26-.89-.36-.3-.1-.59-.16-.88-.16Z"/>
  <path class="cls-10" d="m247.89,226.1h-1.66v-3.39h-3.11v3.39h-1.67v-7.85h1.67v3.08h3.11v-3.08h1.66v7.85Z"/>
  <path class="cls-10" d="m274.63,226.1h-5.49v-1.15l1.97-1.99c.4-.41.72-.75.96-1.02.24-.28.42-.53.53-.75.11-.23.17-.47.17-.73,0-.31-.09-.54-.26-.7-.17-.16-.4-.24-.69-.24-.31,0-.6.07-.89.21-.29.14-.58.34-.9.6l-.9-1.07c.23-.19.46-.38.71-.55.26-.17.55-.31.88-.41.34-.11.74-.16,1.21-.16.52,0,.96.09,1.33.28.37.19.66.44.86.76.2.32.3.68.3,1.09,0,.43-.09.83-.26,1.19s-.42.71-.75,1.06c-.33.35-.72.74-1.18,1.17l-1.01.95v.07h3.42v1.4Z"/>
  <path class="cls-10" d="m287.4,222.17c0,.63-.05,1.2-.15,1.7-.1.5-.25.92-.47,1.27-.21.35-.5.61-.85.79-.35.18-.78.27-1.28.27-.63,0-1.15-.16-1.55-.48-.4-.32-.7-.78-.9-1.38-.19-.61-.29-1.33-.29-2.17s.09-1.57.26-2.18c.18-.6.47-1.07.87-1.39.4-.32.94-.48,1.61-.48.63,0,1.14.16,1.55.48.41.32.71.78.91,1.39.2.6.3,1.33.3,2.18Zm-3.84,0c0,.6.03,1.1.1,1.5.07.4.18.7.34.9.16.2.38.3.66.3s.49-.1.65-.3c.16-.2.28-.5.34-.9.07-.4.1-.9.1-1.5s-.03-1.1-.1-1.5-.18-.7-.34-.9c-.16-.2-.37-.31-.65-.31s-.5.1-.66.31c-.16.2-.27.5-.34.9-.07.4-.1.9-.1,1.5Z"/>
  <path class="cls-10" d="m300.25,226.1h-5.49v-1.15l1.97-1.99c.4-.41.72-.75.96-1.02.24-.28.42-.53.53-.75.11-.23.17-.47.17-.73,0-.31-.09-.54-.26-.7-.17-.16-.4-.24-.69-.24-.3,0-.6.07-.89.21-.29.14-.59.34-.9.6l-.9-1.07c.23-.19.46-.38.71-.55.26-.17.55-.31.88-.41.34-.11.74-.16,1.21-.16.52,0,.96.09,1.33.28.37.19.66.44.86.76.2.32.3.68.3,1.09,0,.43-.09.83-.26,1.19s-.42.71-.75,1.06c-.33.35-.72.74-1.18,1.17l-1.01.95v.07h3.42v1.4Z"/>
  <path class="cls-10" d="m313.24,224.47h-.95v1.63h-1.62v-1.63h-3.35v-1.15l3.44-5.07h1.53v4.94h.95v1.29Zm-2.57-1.29v-1.33c0-.12,0-.27,0-.44,0-.17.01-.34.02-.52,0-.17.01-.32.02-.46.01-.14.02-.23.02-.28h-.04c-.07.15-.14.29-.21.43-.08.14-.16.28-.26.43l-1.44,2.17h1.89Z"/>
  <path class="cls-5" d="m310.97,342.24v-106.73"/>
  <path class="cls-6" d="m298.15,321.86v-87.03"/>
  <path class="cls-4" d="m285.34,332.54v-97.03"/>
  <path class="cls-8" d="m271.14,328.36v-93.52"/>
  <path class="cls-7" d="m244.83,328.21l.55-93.52"/>
  <path class="cls-4" d="m231.7,321.65v-86.96"/>
  <path class="cls-8" d="m218.54,334.77l.04-100.08"/>
  <path class="cls-4" d="m100.66,329.27l-.75-94.58"/>
  <path class="cls-5" d="m126.7,328.21v-93.52"/>
  <path class="cls-4" d="m152.95,308.52v-73.83"/>
  <path class="cls-4" d="m189.59,311.8v-77.11"/>
  <path class="cls-4" d="m166.08,313.44v-78.75"/>
  <path class="cls-2" d="m204.91,318.36v-83.67"/>
  <path class="cls-7" d="m113.58,321.65v-86.96"/>
  <path class="cls-6" d="m87.62,316.18v-81.49"/>
  <path class="cls-5" d="m71.58,342.24v-107.55"/>
  <path class="cls-10" d="m6.48,231.99c-.19.04-.38.03-.56-.03-.18-.06-.34-.18-.46-.33-.12-.15-.19-.33-.21-.52-.02-.19.02-.38.11-.55l9.74-18.73c.08-.15.19-.28.33-.37.14-.09.3-.15.47-.17.17-.01.33.01.49.08.15.07.29.17.39.3l10.79,13.8c.1.13.17.29.2.45.03.17.01.33-.04.49-.06.16-.15.3-.27.41-.12.11-.27.19-.44.23l-20.52,4.93Z"/>
  <path class="cls-1" d="m298.25,7.72s-26.1,20.36-62.68,48.25C153.04,118.92,35.84,216.76,16.85,220.7"/>
  <rect class="cls-9" x="148.03" y="147.73" width="101.42" height="45" rx="4" ry="4"/>
  <path class="cls-7" d="m245.36,208.6l.54-148.17"/>
  <rect class="cls-9" x="255.03" y="148.01" width="36" height="45" rx="4" ry="4"/>
  <path class="cls-10" d="m168.57,169.18c0,1.45-.27,2.66-.81,3.63-.54.97-1.32,1.7-2.35,2.19-1.03.49-2.26.73-3.71.73h-3.57v-12.85h3.96c1.33,0,2.48.24,3.44.72.97.47,1.71,1.18,2.24,2.12.53.93.79,2.09.79,3.46Zm-2.2.06c0-1.06-.17-1.92-.5-2.6-.33-.68-.82-1.18-1.46-1.51-.64-.33-1.43-.5-2.36-.5h-1.8v9.33h1.49c1.55,0,2.71-.4,3.48-1.19.77-.79,1.15-1.97,1.15-3.53Zm8.63-3.43c.87,0,1.61.18,2.23.54.62.36,1.1.86,1.43,1.52.33.66.5,1.44.5,2.35v1.11h-6.49c.02.94.27,1.67.75,2.18.49.51,1.17.76,2.04.76.62,0,1.18-.06,1.67-.18.5-.12,1.01-.3,1.54-.54v1.68c-.49.23-.98.4-1.49.5-.5.1-1.11.16-1.81.16-.96,0-1.8-.18-2.52-.55-.72-.38-1.29-.93-1.7-1.67-.4-.74-.61-1.65-.61-2.75s.18-2.01.55-2.78c.37-.76.89-1.34,1.56-1.74.67-.4,1.45-.6,2.34-.6Zm0,1.56c-.65,0-1.18.21-1.58.63-.4.42-.63,1.04-.7,1.85h4.43c0-.49-.09-.92-.25-1.29-.15-.38-.39-.67-.7-.88-.31-.21-.71-.32-1.19-.32Zm9.27,12.68c-1.32,0-2.33-.24-3.03-.71-.7-.47-1.06-1.14-1.06-1.99,0-.6.19-1.1.56-1.52.38-.41.91-.7,1.61-.85-.26-.12-.49-.3-.68-.54-.19-.25-.28-.53-.28-.84,0-.36.1-.67.31-.93.2-.26.51-.51.92-.75-.51-.22-.92-.57-1.23-1.06-.3-.49-.46-1.07-.46-1.73,0-.7.15-1.3.45-1.79.3-.5.74-.88,1.31-1.13.57-.26,1.27-.4,2.08-.4.18,0,.37.01.57.04.21.02.4.04.58.07.18.02.32.05.41.08h3.37v1.15l-1.65.31c.16.22.29.48.38.76.09.28.14.59.14.92,0,1.01-.35,1.8-1.05,2.38-.69.57-1.65.86-2.87.86-.29-.01-.58-.04-.85-.07-.21.13-.37.27-.48.43-.11.15-.17.33-.17.52,0,.16.06.29.17.39.11.09.27.16.49.21.22.05.49.07.81.07h1.68c1.07,0,1.88.23,2.44.68.56.45.84,1.11.84,1.99,0,1.11-.46,1.96-1.37,2.56-.91.6-2.23.9-3.95.9Zm.08-1.45c.72,0,1.33-.07,1.82-.21.49-.14.86-.34,1.12-.61.25-.26.38-.57.38-.92,0-.32-.08-.56-.24-.73-.16-.17-.4-.29-.71-.35-.32-.06-.71-.1-1.18-.1h-1.53c-.38,0-.72.06-1.01.18-.29.12-.52.3-.69.53-.16.23-.24.5-.24.83,0,.45.2.79.59,1.03.4.24.96.36,1.69.36Zm.4-7.58c.6,0,1.05-.16,1.34-.49.29-.33.44-.8.44-1.41,0-.66-.15-1.15-.46-1.48-.3-.33-.74-.49-1.34-.49s-1.02.17-1.33.5c-.3.33-.45.83-.45,1.49,0,.59.15,1.05.45,1.39.3.33.75.49,1.34.49Zm11.65-5.21c.16,0,.34,0,.54.03.19.02.36.04.5.07l-.19,1.93c-.12-.04-.28-.06-.46-.08-.18-.02-.33-.03-.47-.03-.37,0-.72.06-1.06.18-.33.12-.63.3-.89.54-.26.24-.46.54-.61.91-.15.36-.22.79-.22,1.26v5.09h-2.07v-9.73h1.62l.28,1.71h.1c.19-.34.43-.66.72-.95.29-.29.62-.51.98-.68.38-.18.79-.26,1.23-.26Zm11.45,5.03c0,.81-.1,1.53-.32,2.15s-.52,1.16-.92,1.59c-.4.43-.89.76-1.46.99-.57.22-1.21.33-1.93.33-.67,0-1.28-.11-1.84-.33-.56-.23-1.04-.56-1.45-.99-.4-.43-.72-.96-.94-1.59-.22-.63-.33-1.35-.33-2.15,0-1.07.18-1.98.55-2.72.38-.75.91-1.32,1.6-1.71.69-.39,1.51-.59,2.47-.59.9,0,1.69.2,2.37.59.68.39,1.22.96,1.61,1.71.39.75.58,1.66.58,2.72Zm-7.06,0c0,.71.08,1.32.26,1.82.18.5.45.89.81,1.16.36.26.83.4,1.41.4s1.04-.13,1.41-.4c.36-.27.63-.66.8-1.16s.26-1.11.26-1.82-.09-1.31-.26-1.8c-.17-.5-.44-.88-.8-1.13-.36-.26-.83-.4-1.41-.4-.85,0-1.48.29-1.87.86-.39.57-.59,1.4-.59,2.47Zm17.38,4.88l-1.23-4.53c-.06-.22-.13-.49-.21-.81-.08-.32-.16-.64-.25-.98-.08-.34-.16-.65-.23-.94-.06-.29-.11-.51-.15-.67h-.07c-.03.16-.08.38-.14.67-.07.29-.14.6-.22.94s-.16.67-.25.99c-.08.32-.15.6-.21.83l-1.29,4.49h-2.27l-2.72-9.73h2.09l1.26,4.83c.08.33.16.68.24,1.06.08.38.15.74.21,1.09.06.35.1.63.13.85h.07c.02-.16.05-.36.1-.6.04-.25.09-.5.14-.76.05-.27.1-.52.16-.76.05-.24.1-.43.15-.58l1.49-5.14h2.26l1.43,5.14c.07.22.13.5.21.84.08.33.14.67.2,1.01.07.33.11.61.12.84h.07c.02-.2.06-.47.12-.81.06-.35.14-.71.22-1.1.08-.39.17-.76.26-1.09l1.29-4.83h2.06l-2.74,9.73h-2.31Zm10.35-1.49c.27,0,.54-.02.8-.07.26-.05.5-.12.72-.18v1.56c-.23.1-.52.18-.89.26-.36.07-.74.11-1.13.11-.55,0-1.05-.09-1.49-.27-.44-.19-.79-.51-1.05-.96-.26-.45-.39-1.08-.39-1.87v-5.23h-1.33v-.92l1.42-.73.68-2.08h1.3v2.16h2.79v1.57h-2.79v5.2c0,.49.12.86.37,1.1.25.24.57.36.98.36Zm5.56-12.18v3.44c0,.36-.01.71-.04,1.05-.02.34-.04.6-.06.79h.11c.2-.34.46-.62.76-.84.3-.22.63-.39,1-.5.38-.11.77-.17,1.19-.17.74,0,1.38.13,1.9.38.52.25.92.63,1.2,1.15.28.52.42,1.2.42,2.03v6.35h-2.07v-5.96c0-.76-.15-1.32-.47-1.7-.31-.38-.79-.57-1.44-.57s-1.12.13-1.49.4c-.36.26-.62.64-.78,1.15-.16.5-.24,1.12-.24,1.85v4.83h-2.07v-13.68h2.07Z"/>
  <rect class="cls-9" x="148.03" y="248.01" width="140" height="45" rx="4" ry="4"/>
  <path class="cls-10" d="m165.61,265.48c-.61,0-1.17.11-1.65.33-.48.22-.89.55-1.22.97-.33.42-.59.92-.76,1.52-.18.59-.26,1.26-.26,2,0,1,.14,1.85.42,2.57.28.71.71,1.27,1.28,1.65.57.38,1.3.57,2.18.57.54,0,1.07-.05,1.59-.16.52-.11,1.05-.25,1.6-.43v1.79c-.52.2-1.05.35-1.58.45s-1.15.14-1.85.14c-1.31,0-2.4-.27-3.27-.82-.86-.55-1.51-1.31-1.93-2.3-.42-.99-.63-2.15-.63-3.48,0-.97.13-1.86.4-2.67.27-.81.66-1.51,1.18-2.09.52-.59,1.15-1.05,1.91-1.36.76-.32,1.63-.48,2.61-.48.64,0,1.28.07,1.9.22.63.14,1.21.34,1.74.61l-.74,1.74c-.45-.21-.91-.39-1.4-.55-.49-.15-.99-.23-1.51-.23Zm14.34,6.35c0,.81-.1,1.53-.32,2.15-.21.63-.52,1.16-.92,1.59-.4.43-.89.76-1.46.99-.57.22-1.21.33-1.93.33-.67,0-1.28-.11-1.84-.33-.56-.23-1.04-.56-1.45-.99-.4-.43-.72-.96-.94-1.59-.22-.63-.33-1.35-.33-2.15,0-1.07.18-1.98.55-2.72.38-.75.91-1.32,1.6-1.71.69-.39,1.51-.59,2.47-.59.9,0,1.69.2,2.37.59.68.39,1.22.96,1.61,1.71s.58,1.66.58,2.72Zm-7.06,0c0,.71.08,1.32.26,1.82.18.5.45.89.81,1.16.36.26.83.4,1.41.4s1.04-.13,1.41-.4c.36-.27.63-.66.8-1.16.17-.5.26-1.11.26-1.82s-.09-1.31-.26-1.8c-.17-.5-.44-.88-.8-1.13-.36-.26-.83-.4-1.41-.4-.85,0-1.48.29-1.87.86-.39.57-.59,1.4-.59,2.47Zm14.5-5.03c1.1,0,1.95.28,2.56.85.62.56.92,1.47.92,2.72v6.35h-2.07v-5.96c0-.76-.15-1.32-.46-1.7-.31-.38-.79-.57-1.44-.57-.94,0-1.6.29-1.97.87-.36.58-.54,1.42-.54,2.52v4.83h-2.07v-9.73h1.61l.29,1.32h.11c.21-.34.47-.62.78-.83.32-.22.67-.39,1.05-.5.39-.11.8-.17,1.22-.17Zm12.91,7.14c0,.64-.16,1.18-.47,1.62-.31.44-.76.77-1.36,1-.59.22-1.32.33-2.18.33-.68,0-1.27-.05-1.76-.15-.49-.09-.95-.24-1.38-.44v-1.78c.46.22.98.4,1.56.56.58.16,1.13.24,1.64.24.68,0,1.17-.11,1.47-.32.3-.22.45-.5.45-.86,0-.21-.06-.4-.18-.56-.12-.17-.34-.34-.67-.52-.32-.18-.8-.4-1.42-.65-.61-.25-1.13-.49-1.56-.74-.42-.25-.74-.54-.96-.89-.22-.35-.33-.8-.33-1.34,0-.86.34-1.51,1.02-1.96.68-.45,1.59-.68,2.71-.68.6,0,1.16.06,1.69.18.53.12,1.06.29,1.56.52l-.65,1.56c-.44-.19-.88-.35-1.33-.48-.44-.13-.89-.19-1.35-.19-.53,0-.94.08-1.22.25-.27.16-.41.4-.41.7,0,.23.07.42.2.58.13.16.37.32.69.48.33.16.8.35,1.39.59.58.22,1.08.46,1.5.7.43.24.76.54.99.89.23.35.34.81.34,1.36Zm10.71-6.95v9.73h-1.63l-.28-1.31h-.11c-.21.33-.47.61-.78.83-.32.22-.67.38-1.06.48-.39.11-.79.17-1.22.17-.73,0-1.36-.12-1.88-.37-.51-.25-.91-.64-1.19-1.16-.27-.52-.41-1.2-.41-2.02v-6.35h2.07v5.97c0,.76.15,1.32.46,1.7.31.38.79.56,1.44.56s1.12-.13,1.49-.39c.37-.26.63-.64.78-1.14.16-.5.24-1.12.24-1.85v-4.84h2.07Zm13.96-.18c1.09,0,1.91.28,2.46.84.56.56.84,1.46.84,2.71v6.36h-2.07v-5.99c0-.74-.14-1.3-.43-1.67-.29-.38-.72-.56-1.31-.56-.82,0-1.41.26-1.78.79-.36.52-.54,1.28-.54,2.28v5.16h-2.07v-5.99c0-.49-.07-.9-.19-1.23-.12-.33-.31-.58-.57-.75-.26-.17-.58-.26-.98-.26-.57,0-1.02.13-1.36.39-.33.26-.57.64-.72,1.14-.15.5-.22,1.11-.22,1.84v4.86h-2.07v-9.73h1.61l.29,1.31h.11c.2-.34.44-.62.74-.83.3-.22.63-.39.99-.49.36-.11.74-.17,1.13-.17.73,0,1.34.13,1.84.39.5.25.87.64,1.12,1.16h.16c.3-.53.73-.92,1.27-1.17.54-.25,1.12-.38,1.73-.38Zm10.05,0c.87,0,1.61.18,2.23.54.62.36,1.1.86,1.43,1.52.33.66.5,1.44.5,2.35v1.11h-6.49c.02.94.27,1.67.76,2.18.49.51,1.17.76,2.04.76.62,0,1.18-.06,1.67-.18.5-.12,1.01-.3,1.54-.54v1.68c-.49.23-.98.39-1.49.5-.5.1-1.11.16-1.81.16-.96,0-1.8-.18-2.52-.55-.72-.38-1.29-.93-1.7-1.67-.4-.74-.61-1.65-.61-2.75s.18-2.01.55-2.78c.37-.76.89-1.34,1.55-1.74.67-.4,1.45-.6,2.34-.6Zm0,1.56c-.65,0-1.18.21-1.58.63-.4.42-.63,1.04-.7,1.86h4.43c0-.49-.09-.92-.25-1.29-.15-.38-.39-.67-.7-.88-.31-.21-.71-.32-1.2-.32Zm11.43-1.56c.16,0,.34,0,.54.03.19.02.36.04.5.07l-.19,1.93c-.12-.04-.28-.06-.46-.08-.18-.02-.33-.03-.47-.03-.37,0-.72.06-1.06.18-.33.12-.63.3-.89.54-.26.24-.46.54-.61.91-.15.36-.22.79-.22,1.27v5.09h-2.07v-9.73h1.62l.28,1.71h.1c.19-.35.43-.66.72-.95.29-.29.62-.52.98-.68.38-.18.79-.26,1.23-.26Zm4.9.18v9.73h-2.07v-9.73h2.07Zm-1.02-3.73c.32,0,.59.08.82.26.23.17.35.46.35.88s-.12.7-.35.88c-.23.17-.5.26-.82.26s-.61-.09-.84-.26c-.22-.18-.33-.47-.33-.88s.11-.71.33-.88c.23-.17.51-.26.84-.26Zm10.52,10.68c0,.64-.15,1.18-.47,1.62-.31.44-.76.77-1.36,1-.59.22-1.32.33-2.18.33-.68,0-1.27-.05-1.76-.15-.49-.09-.95-.24-1.38-.44v-1.78c.46.22.98.4,1.56.56.58.16,1.13.24,1.64.24.68,0,1.17-.11,1.47-.32.3-.22.45-.5.45-.86,0-.21-.06-.4-.18-.56-.12-.17-.34-.34-.67-.52-.32-.18-.8-.4-1.42-.65-.62-.25-1.13-.49-1.56-.74-.42-.25-.74-.54-.96-.89-.22-.35-.32-.8-.32-1.34,0-.86.34-1.51,1.02-1.96.69-.45,1.59-.68,2.72-.68.6,0,1.16.06,1.69.18.53.12,1.05.29,1.56.52l-.65,1.56c-.44-.19-.88-.35-1.33-.48-.44-.13-.89-.19-1.34-.19-.53,0-.94.08-1.22.25-.27.16-.41.4-.41.7,0,.23.07.42.2.58.13.16.37.32.69.48.33.16.8.35,1.39.59.58.22,1.08.46,1.5.7.43.24.76.54.98.89.23.35.34.81.34,1.36Zm13.23-7.14c1.09,0,1.91.28,2.46.84.56.56.83,1.46.83,2.71v6.36h-2.07v-5.99c0-.74-.14-1.3-.43-1.67-.29-.38-.72-.56-1.31-.56-.82,0-1.41.26-1.77.79-.36.52-.54,1.28-.54,2.28v5.16h-2.07v-5.99c0-.49-.06-.9-.19-1.23-.12-.33-.31-.58-.57-.75-.26-.17-.58-.26-.98-.26-.57,0-1.02.13-1.36.39-.33.26-.57.64-.72,1.14-.15.5-.22,1.11-.22,1.84v4.86h-2.07v-9.73h1.61l.29,1.31h.11c.2-.34.45-.62.74-.83.3-.22.63-.39.99-.49.36-.11.74-.17,1.13-.17.73,0,1.34.13,1.84.39.5.25.87.64,1.12,1.16h.16c.31-.53.73-.92,1.27-1.17.54-.25,1.12-.38,1.73-.38Z"/>
  <path class="cls-10" d="m270.98,164.68c.66,0,1.24.11,1.74.32.5.22.9.53,1.18.95.28.41.42.91.42,1.5,0,.79-.25,1.46-.74,2-.49.54-1.11,1.03-1.86,1.46l3.03,2.95c.29-.39.52-.82.71-1.29.19-.47.35-.97.48-1.49h2.14c-.18.73-.43,1.45-.76,2.15-.32.7-.73,1.35-1.22,1.93l2.61,2.55h-2.65l-1.3-1.27c-.36.29-.75.55-1.17.76-.41.22-.86.39-1.34.51-.49.12-1.02.18-1.61.18-.9,0-1.67-.14-2.32-.43s-1.15-.7-1.5-1.23c-.35-.54-.52-1.18-.52-1.92,0-.62.1-1.14.31-1.58.21-.45.51-.83.9-1.17.39-.34.85-.66,1.39-.97-.29-.33-.55-.66-.76-.98-.22-.32-.38-.64-.5-.98-.11-.34-.17-.7-.17-1.09,0-.6.15-1.11.44-1.54.29-.43.7-.76,1.23-.99.53-.24,1.14-.35,1.85-.35Zm-.86,7.18c-.34.22-.63.44-.88.66-.25.22-.44.46-.57.72-.13.26-.19.57-.19.92,0,.6.21,1.08.63,1.43.43.35.98.53,1.65.53.59,0,1.11-.09,1.56-.26.45-.18.84-.41,1.18-.68l-3.38-3.32Zm.83-5.55c-.42,0-.78.11-1.08.33-.3.22-.45.55-.45,1.01,0,.37.1.72.29,1.05.2.32.48.67.83,1.05.62-.34,1.07-.67,1.37-1,.31-.33.46-.71.46-1.14,0-.41-.14-.73-.41-.95-.27-.22-.61-.33-1-.33Z"/>
</svg>