<?xml version="1.0" encoding="UTF-8"?>
<svg id="Layer_1" data-name="Layer 1" xmlns="http://www.w3.org/2000/svg" width="24" height="24" viewBox="0 0 24 24">
  <defs>
    <style>
      .cls-1 {
        fill: #6f0b1d;
        stroke-width: 0px;
      }
    </style>
  </defs>
  <path class="cls-1" d="m16.5,21H7.5c-2.48,0-4.5-2.02-4.5-4.5V7.5c0-2.48,2.02-4.5,4.5-4.5h9c2.48,0,4.5,2.02,4.5,4.5v9c0,2.48-2.02,4.5-4.5,4.5ZM7.5,4.5c-1.65,0-3,1.35-3,3v9c0,1.65,1.35,3,3,3h9c1.65,0,3-1.35,3-3V7.5c0-1.65-1.35-3-3-3H7.5Z"/>
  <path class="cls-1" d="m12,16.35c-2.4,0-4.35-1.95-4.35-4.35s1.95-4.35,4.35-4.35,4.35,1.95,4.35,4.35-1.95,4.35-4.35,4.35Zm0-7.27c-1.61,0-2.92,1.31-2.92,2.92s1.31,2.92,2.92,2.92,2.92-1.31,2.92-2.92-1.31-2.92-2.92-2.92Z"/>
  <path class="cls-1" d="m16.95,8.1c.58,0,1.05-.47,1.05-1.05s-.47-1.05-1.05-1.05-1.05.47-1.05,1.05.47,1.05,1.05,1.05Z"/>
</svg>