<?xml version="1.0" encoding="UTF-8"?>
<svg id="Layer_1" data-name="Layer 1" xmlns="http://www.w3.org/2000/svg" width="24" height="24" viewBox="0 0 24 24">
  <defs>
    <style>
      .cls-1 {
        fill: #6f0b1d;
        stroke-width: 0px;
      }
    </style>
  </defs>
  <path class="cls-1" d="m16.5,21H7.5c-2.48,0-4.5-2.02-4.5-4.5V7.5c0-2.48,2.02-4.5,4.5-4.5h9c2.48,0,4.5,2.02,4.5,4.5v9c0,2.48-2.02,4.5-4.5,4.5ZM7.5,4.5c-1.65,0-3,1.35-3,3v9c0,1.65,1.35,3,3,3h9c1.65,0,3-1.35,3-3V7.5c0-1.65-1.35-3-3-3H7.5Z"/>
  <path class="cls-1" d="m9,10.43v5.32c0,.41-.34.75-.75.75s-.75-.34-.75-.75v-5.32c0-.41.34-.75.75-.75s.75.34.75.75Zm-.75-3.23c-.41,0-.75.34-.75.75v.15c0,.41.34.75.75.75s.75-.34.75-.75v-.15c0-.41-.34-.75-.75-.75Zm6.23,2.58c-.75-.15-1.68.05-2.48.68-.02-.4-.34-.71-.75-.71s-.75.34-.75.75v5.25c0,.41.34.75.75.75s.75-.34.75-.75v-2.8s.02-.03.03-.05c.51-1.26,1.48-1.78,2.16-1.65.52.1.81.57.81,1.28v3.21c0,.41.34.75.75.75s.75-.34.75-.75v-3.21c0-1.43-.79-2.51-2.02-2.75Z"/>
</svg>