<?xml version="1.0" encoding="UTF-8"?>
<svg id="Layer_1" data-name="Layer 1" xmlns="http://www.w3.org/2000/svg" width="24" height="24" viewBox="0 0 24 24">
  <defs>
    <style>
      .cls-1 {
        fill: #6f0b1d;
        stroke-width: 0px;
      }
    </style>
  </defs>
  <path class="cls-1" d="m11.46,13.76l-5.59,6.48c-.15.17-.36.26-.57.26-.17,0-.35-.06-.49-.18-.31-.27-.34-.75-.07-1.06l5.77-6.69.95,1.19Zm2.03-2.33l5.77-6.69c.27-.31.24-.79-.07-1.06-.31-.27-.79-.24-1.06.07l-5.59,6.48.95,1.19h0Z"/>
  <path class="cls-1" d="m20.05,20.5h-3.9c-.23,0-.44-.1-.59-.28L3.36,4.72c-.18-.23-.21-.54-.09-.79.13-.26.39-.43.68-.43h3.9c.23,0,.44.1.59.28l12.2,15.5c.18.23.22.53.09.79-.12.26-.39.43-.68.43Zm-3.54-1.5h1.98L7.49,5h-1.98s11,14,11,14Z"/>
</svg>