<?xml version="1.0" encoding="UTF-8"?>
<svg id="Layer_1" data-name="Layer 1" xmlns="http://www.w3.org/2000/svg" viewBox="0 0 22 16">
  <defs>
    <style>
      .cls-1 {
        fill: #6f0b1d;
      }
    </style>
  </defs>
  <path class="cls-1" d="m11.37,16c-.58,0-.81,0-1.28-.01h-.41c-4.27-.08-5.61-.15-6.53-.33-.73-.14-1.37-.46-1.84-.93-.38-.36-.66-.88-.88-1.58-.18-.57-.24-1.07-.32-2.03v-.02c-.15-2.53-.15-4.33,0-6.21,0,0,0-.02,0-.03.01-.1.02-.21.04-.32.12-1.11.27-2.49,1.27-3.38.52-.46,1.13-.75,1.8-.87,1.09-.2,4.8-.29,7.78-.29s6.69.09,7.78.29c.85.15,1.65.61,2.13,1.23.01.02.02.03.04.05.83,1.25.92,2.71.99,3.88,0,.12.01.24.02.35.04.6.04,3.81,0,4.4-.12,1.83-.23,2.62-.57,3.43-.21.51-.42.82-.76,1.15-.52.49-1.18.82-1.9.94-.02,0-.05,0-.07,0-2.52.18-4.43.28-7.31.28Zm-.36-14.58c-3.98,0-6.79.13-7.51.26-.41.07-.77.25-1.09.53-.59.53-.7,1.52-.81,2.48v.02c-.01.1-.02.2-.04.29-.14,1.81-.14,3.55,0,6,.08.96.14,1.32.27,1.73.14.46.32.8.51.99.27.27.65.45,1.1.54.8.16,2.2.22,6.26.3.78.01,1.46.02,2.09.02,2.47,0,4.2-.09,6.73-.27h.01c.41-.08.79-.26,1.09-.55.17-.16.27-.3.42-.67.25-.59.34-1.2.47-2.99.03-.53.03-3.69,0-4.22,0-.11-.02-.23-.02-.35-.06-1.05-.14-2.24-.74-3.17h0s0,0,0,0c-.27-.33-.74-.58-1.22-.67-.71-.13-3.58-.26-7.51-.26Z"/>
  <path class="cls-1" d="m14.83,8.52c.37-.19.37-.72,0-.9-2.14-1.08-3.96-2.1-6.07-3.15-.35-.17-.77.07-.77.45v6.22c0,.38.42.63.77.45,2-1.04,4.68-2.38,6.06-3.07Z"/>
</svg>